<?xml version="1.0" encoding="UTF-8"?>
<svg width="256px" height="256px" viewBox="0 0 256 256" version="1.1" xmlns="http://www.w3.org/2000/svg" xmlns:xlink="http://www.w3.org/1999/xlink">
    <!-- Generator: Sketch 63.1 (92452) - https://sketch.com -->
    <title>Icon: 256x256 SVG</title>
    <desc>Created with Sketch.</desc>
    <g id="Icon:-256x256-SVG" stroke="none" stroke-width="1" fill="none" fill-rule="evenodd">
        <g id="Group" fill-rule="nonzero">
            <g id="Circle-black">
                <ellipse id="Oval" fill="#000000" cx="127.865031" cy="127.733888" rx="127.865031" ry="127.733888"></ellipse>
                <path d="M89.7702157,123.152898 L89.7702157,139.092103 L130.013285,139.092103 C129.808573,139.656474 129.501504,140.477377 129.05796,141.4522 C122.647215,155.967069 106.96769,163.992387 91.4807367,160.685511 C75.9937832,157.378634 64.9372759,143.644462 64.9829413,127.770479 C65.1361915,109.37986 79.8559903,94.4488315 98.1975478,94.0792415 C112.493305,94.0792415 118.805275,100.646467 123.445425,105.43507 L130.456829,86.9647467 C121.432654,79.6135419 110.113956,75.6838441 98.4875572,75.8654507 C77.5680486,75.9293006 58.7451714,88.6155398 50.790541,108.012277 C42.8359107,127.409013 47.3148459,149.699342 62.1401261,164.495785 C76.9654063,179.292229 99.2197005,183.683132 118.532325,175.622297 C127.401984,171.787133 135.066893,165.610276 140.709515,157.750549 C144.701409,152.158146 146.356168,147.489259 148.608006,141.246974 C151.866347,132.251242 163.500842,101.912027 163.500842,101.912027 L192.29707,177.811373 C198.176246,176.296984 203.762832,173.811685 208.827606,170.457448 C197.238603,139.935809 185.643913,109.419871 174.043537,78.9096336 C170.538309,78.2168834 166.970901,77.8901974 163.398486,77.934811 C159.811726,77.9775359 156.238872,78.3901607 152.736375,79.1661659 L137.382936,119.612753 L150.177469,123.033183" id="Path" fill="#FFFFFF"></path>
            </g>
        </g>
    </g>
</svg>